<svg xmlns="http://www.w3.org/2000/svg" width="32.628" height="34.535" viewBox="0 0 32.628 34.535">
  <path id="arrow-left" d="M32.628,16.321v2.837a2.96,2.96,0,0,1-.72,2.006A2.362,2.362,0,0,1,30.034,22h-15.6l6.494,6.517a2.784,2.784,0,0,1,0,3.99L19.26,34.186a2.716,2.716,0,0,1-1.995.821,2.836,2.836,0,0,1-2.017-.821L.821,19.734A2.716,2.716,0,0,1,0,17.739a2.836,2.836,0,0,1,.821-2.017L15.25,1.314a2.809,2.809,0,0,1,4.011,0l1.663,1.64a2.751,2.751,0,0,1,.842,2.017,2.751,2.751,0,0,1-.842,2.017l-6.5,6.5h15.6a2.361,2.361,0,0,1,1.873.831A2.964,2.964,0,0,1,32.628,16.321Z" transform="translate(0 -0.472)" fill="#fff"/>
</svg>
