<svg id="calendar-plus" xmlns="http://www.w3.org/2000/svg" width="36" height="36" viewBox="0 0 36 36">
  <path id="Path_7" data-name="Path 7" d="M18,15.75a1.125,1.125,0,0,1,1.125,1.125v4.5A1.125,1.125,0,0,1,18,22.5H13.5a1.125,1.125,0,0,1,0-2.25h3.375V16.875A1.125,1.125,0,0,1,18,15.75Z" fill="#fff" fill-rule="evenodd"/>
  <path id="Path_8" data-name="Path 8" d="M16.875,21.375A1.125,1.125,0,0,1,18,20.25h4.5a1.125,1.125,0,0,1,0,2.25H19.125v3.375a1.125,1.125,0,0,1-2.25,0Z" fill="#fff" fill-rule="evenodd"/>
  <path id="Path_9" data-name="Path 9" d="M2.25,9V31.5A2.25,2.25,0,0,0,4.5,33.75h27a2.25,2.25,0,0,0,2.25-2.25V9ZM4.5,2.25A4.5,4.5,0,0,0,0,6.75V31.5A4.5,4.5,0,0,0,4.5,36h27A4.5,4.5,0,0,0,36,31.5V6.75a4.5,4.5,0,0,0-4.5-4.5Z" fill="#fff" fill-rule="evenodd"/>
  <path id="Path_10" data-name="Path 10" d="M7.875,0A1.125,1.125,0,0,1,9,1.125V2.25a1.125,1.125,0,0,1-2.25,0V1.125A1.125,1.125,0,0,1,7.875,0Zm20.25,0A1.125,1.125,0,0,1,29.25,1.125V2.25a1.125,1.125,0,0,1-2.25,0V1.125A1.125,1.125,0,0,1,28.125,0Z" fill="#fff" fill-rule="evenodd"/>
</svg>
