<svg id="camera" xmlns="http://www.w3.org/2000/svg" width="28.212" height="21.159" viewBox="0 0 28.212 21.159">
  <path id="Path_59" data-name="Path 59" d="M26.449,22.133V11.553A1.763,1.763,0,0,0,24.686,9.79H22.619a5.29,5.29,0,0,1-3.738-1.55L17.418,6.78a1.763,1.763,0,0,0-1.244-.516H12.04a1.763,1.763,0,0,0-1.247.516L9.333,8.24a5.29,5.29,0,0,1-3.74,1.55H3.527a1.763,1.763,0,0,0-1.763,1.763v10.58A1.763,1.763,0,0,0,3.527,23.9H24.686A1.763,1.763,0,0,0,26.449,22.133ZM3.527,8.027A3.527,3.527,0,0,0,0,11.553v10.58a3.527,3.527,0,0,0,3.527,3.527H24.686a3.527,3.527,0,0,0,3.527-3.527V11.553a3.527,3.527,0,0,0-3.527-3.527H22.619a3.527,3.527,0,0,1-2.493-1.034l-1.46-1.46A3.527,3.527,0,0,0,16.173,4.5H12.04A3.527,3.527,0,0,0,9.547,5.534l-1.46,1.46A3.527,3.527,0,0,1,5.593,8.027Z" transform="translate(0 -4.5)" fill="#fff" fill-rule="evenodd"/>
  <path id="Path_60" data-name="Path 60" d="M16.3,21.83a4.408,4.408,0,1,0-4.408-4.408A4.408,4.408,0,0,0,16.3,21.83Zm0,1.763a6.171,6.171,0,1,0-6.171-6.171A6.171,6.171,0,0,0,16.3,23.593Z" transform="translate(-2.19 -5.96)" fill="#fff" fill-rule="evenodd"/>
  <path id="Path_61" data-name="Path 61" d="M6.263,14.382a.882.882,0,1,1-.882-.882A.882.882,0,0,1,6.263,14.382Z" transform="translate(-0.973 -6.447)" fill="#fff"/>
</svg>
