<svg id="camera" xmlns="http://www.w3.org/2000/svg" width="44.035" height="33.026" viewBox="0 0 44.035 33.026">
  <path id="Path_59" data-name="Path 59" d="M41.283,32.022V15.509a2.752,2.752,0,0,0-2.752-2.752H35.305a8.257,8.257,0,0,1-5.835-2.419L27.187,8.058a2.752,2.752,0,0,0-1.941-.806H18.792a2.752,2.752,0,0,0-1.946.806l-2.279,2.279A8.257,8.257,0,0,1,8.73,12.757H5.5a2.752,2.752,0,0,0-2.752,2.752V32.022A2.752,2.752,0,0,0,5.5,34.774H38.531A2.752,2.752,0,0,0,41.283,32.022ZM5.5,10a5.5,5.5,0,0,0-5.5,5.5V32.022a5.5,5.5,0,0,0,5.5,5.5H38.531a5.5,5.5,0,0,0,5.5-5.5V15.509a5.5,5.5,0,0,0-5.5-5.5H35.305a5.5,5.5,0,0,1-3.891-1.613L29.135,6.112A5.5,5.5,0,0,0,25.243,4.5H18.792A5.5,5.5,0,0,0,14.9,6.113L12.622,8.392A5.5,5.5,0,0,1,8.73,10Z" transform="translate(0 -4.5)" fill-rule="evenodd"/>
  <path id="Path_60" data-name="Path 60" d="M19.758,27.763a6.881,6.881,0,1,0-6.881-6.881A6.881,6.881,0,0,0,19.758,27.763Zm0,2.752a9.633,9.633,0,1,0-9.633-9.633,9.633,9.633,0,0,0,9.633,9.633Z" transform="translate(2.26 -2.993)" fill-rule="evenodd"/>
  <path id="Path_61" data-name="Path 61" d="M7.252,14.876A1.376,1.376,0,1,1,5.876,13.5,1.376,1.376,0,0,1,7.252,14.876Z" transform="translate(1.004 -2.491)"/>
</svg>
