<svg xmlns="http://www.w3.org/2000/svg" width="24" height="30" viewBox="0 0 24 30">
  <path id="cart" d="M12,24H24a1.5,1.5,0,0,1,0,3H10.5A1.5,1.5,0,0,1,9,25.5V6H7.5a1.5,1.5,0,0,1,0-3h3A1.5,1.5,0,0,1,12,4.5v3l.11,0H26.891A3.055,3.055,0,0,1,30,10.5a2.922,2.922,0,0,1-.075.651l-1.727,7.5A3.086,3.086,0,0,1,25.162,21H12.11L12,21Zm-.75,9a2.25,2.25,0,1,1,2.25-2.25A2.25,2.25,0,0,1,11.25,33Zm13.5,0A2.25,2.25,0,1,1,27,30.75,2.25,2.25,0,0,1,24.75,33ZM12,10.5V18H25.246L27,10.5Z" transform="translate(-6 -3)" fill="#fff" fill-rule="evenodd"/>
</svg>
