<svg xmlns="http://www.w3.org/2000/svg" width="36" height="36" viewBox="0 0 36 36">
  <path id="envelope-open-o" d="M29.612,18.342l.783,1.025a.648.648,0,0,1,.131.472.6.6,0,0,1-.231.411q-.864.683-2.541,1.979T24.811,24.5l-1.346,1.035q-.783.643-1.2.964t-1.215.824a6.448,6.448,0,0,1-1.537.733,5.035,5.035,0,0,1-1.487.231h-.04a4.991,4.991,0,0,1-1.487-.231,6.323,6.323,0,0,1-1.527-.733q-.783-.5-1.225-.834t-1.2-.954q-.1-.08-1.306-1.015t-2.883-2.23q-1.677-1.295-2.462-1.9a.58.58,0,0,1-.251-.412.648.648,0,0,1,.131-.472l.743-1.045a.628.628,0,0,1,.432-.261.607.607,0,0,1,.492.141q1.888,1.467,6.147,4.741l.874.7q.774.623,1.215.934a8.577,8.577,0,0,0,1.135.653,2.778,2.778,0,0,0,1.175.342h.04a2.773,2.773,0,0,0,1.175-.342,8.665,8.665,0,0,0,1.135-.653q.442-.311,1.215-.934l.874-.7q5.183-3.978,6.288-4.862a.665.665,0,0,1,.482-.131.587.587,0,0,1,.422.251Zm3.817,14.444V14.143q-1.808-1.667-3.194-2.792Q28.407,9.864,22.42,5.244q-.06-.04-.864-.7t-1.225-.964a8.556,8.556,0,0,0-1.125-.653,2.78,2.78,0,0,0-1.185-.352h-.04a2.775,2.775,0,0,0-1.185.352,8.8,8.8,0,0,0-1.126.652q-.423.3-1.225.964t-.864.7q-4.32,3.335-6.339,4.932t-2.6,2.09q-.582.493-1.648,1.5-.281.241-.422.382V32.786a.652.652,0,0,0,.643.643H32.785a.652.652,0,0,0,.643-.643ZM36,14.143V32.786A3.223,3.223,0,0,1,32.786,36H3.214a3.1,3.1,0,0,1-2.27-.944A3.1,3.1,0,0,1,0,32.786V14.143a2.47,2.47,0,0,1,.824-1.888Q3.3,9.965,7.855,6.419t4.681-3.647q.723-.6,1.185-.954T14.956.974A6.543,6.543,0,0,1,16.483.241,4.936,4.936,0,0,1,17.98,0h.04a4.9,4.9,0,0,1,1.5.241,6.6,6.6,0,0,1,1.527.733q.773.492,1.235.844t1.185.954q.864.723,3.134,2.451t4.54,3.556q2.27,1.828,4.038,3.475A2.47,2.47,0,0,1,36,14.142Z" fill="#fff"/>
</svg>
