<svg xmlns="http://www.w3.org/2000/svg" width="34" height="31.15" viewBox="0 0 34 31.15">
  <g id="house-door" transform="translate(-3.375 -2.248)">
    <path id="Path_5" data-name="Path 5" d="M19.449,2.575a1.475,1.475,0,0,1,1.852,0L36.994,15.925a1.035,1.035,0,0,1,.381.787V32.286A1.222,1.222,0,0,1,36.067,33.4H24.3a1.222,1.222,0,0,1-1.308-1.112v-8.9H17.76v8.9A1.222,1.222,0,0,1,16.452,33.4H4.683a1.222,1.222,0,0,1-1.308-1.112V16.712a1.035,1.035,0,0,1,.381-.787L19.449,2.575ZM5.99,17.173v14h9.154v-8.9a1.222,1.222,0,0,1,1.308-1.112H24.3a1.222,1.222,0,0,1,1.308,1.112v8.9h9.154v-14L20.376,4.936Z" transform="translate(0)" fill="#fff" fill-rule="evenodd"/>
    <path id="Path_6" data-name="Path 6" d="M29.25,5.625V13.5L24.75,9V5.625A1.125,1.125,0,0,1,25.875,4.5h2.25A1.125,1.125,0,0,1,29.25,5.625Z" transform="translate(4.751)" fill="#fff" fill-rule="evenodd"/>
  </g>
</svg>
