<svg xmlns="http://www.w3.org/2000/svg" width="20.947" height="36.001" viewBox="0 0 20.947 36.001">
  <path id="male" d="M20.945,13.745v8.509a1.964,1.964,0,1,1-3.928,0v-7.2H15.708V33.71A2.285,2.285,0,0,1,11.8,35.326a2.2,2.2,0,0,1-.675-1.616V24.219H9.817V33.71A2.3,2.3,0,0,1,7.526,36,2.3,2.3,0,0,1,5.235,33.71V15.055H3.926v7.2a1.894,1.894,0,0,1-.573,1.391,1.894,1.894,0,0,1-1.391.573,1.894,1.894,0,0,1-1.391-.573A1.894,1.894,0,0,1,0,22.255v-8.51a3.789,3.789,0,0,1,1.145-2.782A3.782,3.782,0,0,1,3.925,9.818H17.016a3.909,3.909,0,0,1,3.927,3.927Zm-5.89-9.163a4.416,4.416,0,0,1-1.34,3.242,4.416,4.416,0,0,1-3.242,1.34,4.416,4.416,0,0,1-3.242-1.34,4.416,4.416,0,0,1-1.34-3.242A4.416,4.416,0,0,1,7.231,1.34,4.416,4.416,0,0,1,10.473,0a4.416,4.416,0,0,1,3.242,1.34A4.416,4.416,0,0,1,15.055,4.582Z" transform="translate(0.002)" fill="#fff"/>
</svg>
