<svg xmlns="http://www.w3.org/2000/svg" width="25.387" height="24.568" viewBox="0 0 25.387 24.568">
  <path id="Path_55" data-name="Path 55" d="M6.734,3.163a1.042,1.042,0,0,0-1.558-.1L3.587,4.656A2.625,2.625,0,0,0,2.9,7.371,26.973,26.973,0,0,0,9.3,17.519a26.973,26.973,0,0,0,10.147,6.4,2.627,2.627,0,0,0,2.715-.689l1.589-1.589a1.042,1.042,0,0,0-.1-1.558l-3.54-2.754a1.042,1.042,0,0,0-.891-.189l-3.361.84a2.679,2.679,0,0,1-2.545-.7L9.543,13.5a2.679,2.679,0,0,1-.7-2.545L9.678,7.6a1.042,1.042,0,0,0-.189-.891ZM4.019,1.911a2.679,2.679,0,0,1,4.009.25L10.781,5.7a2.672,2.672,0,0,1,.485,2.293l-.84,3.362a1.042,1.042,0,0,0,.274.989l3.773,3.77a1.042,1.042,0,0,0,.989.274l3.361-.84a2.679,2.679,0,0,1,2.294.485l3.54,2.753a2.679,2.679,0,0,1,.25,4.009l-1.589,1.589A4.267,4.267,0,0,1,18.9,25.463,28.613,28.613,0,0,1,8.14,18.677,28.611,28.611,0,0,1,1.353,7.915,4.269,4.269,0,0,1,2.431,3.5L4.019,1.909Zm17-.547a.819.819,0,0,1,1.16,0l4.094,4.094a.819.819,0,0,1,0,1.16l-4.094,4.094a.82.82,0,1,1-1.16-1.16l2.7-2.7H15.864a.819.819,0,0,1,0-1.638h7.849l-2.7-2.7a.819.819,0,0,1,0-1.16Z" transform="translate(-1.124 -1.123)" fill="#fff" fill-rule="evenodd"/>
</svg>
