<svg xmlns="http://www.w3.org/2000/svg" width="30.333" height="22.75" viewBox="0 0 30.333 22.75">
  <g id="tv" transform="translate(0 -4.5)">
    <path id="Path_58" data-name="Path 58" d="M4.74,26.3a.948.948,0,0,1,.948-.948H24.646a.948.948,0,0,1,0,1.9H5.687A.948.948,0,0,1,4.74,26.3ZM26.525,6.4H3.792a1.982,1.982,0,0,0-1.142.275,1.437,1.437,0,0,0-.482.572A2.768,2.768,0,0,0,1.9,8.31V19.667a1.982,1.982,0,0,0,.275,1.142,1.446,1.446,0,0,0,.572.482,2.776,2.776,0,0,0,1.02.271H26.542a1.982,1.982,0,0,0,1.142-.275,1.437,1.437,0,0,0,.482-.572,2.775,2.775,0,0,0,.271-1.02V8.292a1.982,1.982,0,0,0-.275-1.142,1.435,1.435,0,0,0-.572-.482A2.768,2.768,0,0,0,26.522,6.4Zm.017-1.9H3.792C0,4.5,0,8.292,0,8.292V19.667c0,3.792,3.792,3.792,3.792,3.792h22.75c3.792,0,3.792-3.792,3.792-3.792V8.292C30.333,4.5,26.542,4.5,26.542,4.5Z" fill="#f9f9f9" fill-rule="evenodd"/>
  </g>
</svg>
