<svg xmlns="http://www.w3.org/2000/svg" width="36" height="26.999" viewBox="0 0 36 26.999">
  <path id="vcard-o" d="M18,17.631a2.749,2.749,0,0,1-.65,1.872,2.04,2.04,0,0,1-1.6.747h-9a2.042,2.042,0,0,1-1.6-.747,2.743,2.743,0,0,1-.65-1.872,12.64,12.64,0,0,1,.158-2.065,8.24,8.24,0,0,1,.519-1.811A3.1,3.1,0,0,1,6.24,12.384a2.865,2.865,0,0,1,1.7-.5q.1.07.527.316t.659.378q.237.132.625.308a3.729,3.729,0,0,0,.756.255,3.487,3.487,0,0,0,1.476,0,3.729,3.729,0,0,0,.756-.255q.388-.176.624-.308t.659-.378q.423-.246.527-.316a2.861,2.861,0,0,1,1.7.5,3.087,3.087,0,0,1,1.063,1.371,8.366,8.366,0,0,1,.519,1.811A12.362,12.362,0,0,1,18,17.631ZM15.24,8.49a3.844,3.844,0,0,1-1.169,2.821A3.844,3.844,0,0,1,11.25,12.48a3.844,3.844,0,0,1-2.821-1.169A3.844,3.844,0,0,1,7.26,8.49,3.844,3.844,0,0,1,8.429,5.669,3.844,3.844,0,0,1,11.25,4.5a3.844,3.844,0,0,1,2.821,1.169A3.844,3.844,0,0,1,15.24,8.49ZM31.5,16.312v1.125a.541.541,0,0,1-.562.562H20.813a.541.541,0,0,1-.562-.562V16.312a.541.541,0,0,1,.562-.562H30.938a.541.541,0,0,1,.562.562Zm0-4.43v.984a.608.608,0,0,1-.185.448.619.619,0,0,1-.448.186H20.883a.608.608,0,0,1-.448-.185.615.615,0,0,1-.185-.448v-.984a.608.608,0,0,1,.185-.448.615.615,0,0,1,.448-.185h9.984a.608.608,0,0,1,.448.185.615.615,0,0,1,.185.448Zm0-4.57V8.437A.541.541,0,0,1,30.938,9H20.813a.541.541,0,0,1-.562-.562V7.312a.541.541,0,0,1,.562-.562H30.938a.541.541,0,0,1,.562.562Zm2.25,16.875V2.813a.57.57,0,0,0-.562-.563H2.813a.57.57,0,0,0-.563.563V24.188a.57.57,0,0,0,.563.563H9V23.063a.541.541,0,0,1,.562-.562h1.125a.541.541,0,0,1,.562.562v1.688h13.5V23.063a.541.541,0,0,1,.562-.562h1.125a.541.541,0,0,1,.562.562v1.688h6.188a.57.57,0,0,0,.563-.563ZM36,2.812V24.187A2.82,2.82,0,0,1,33.188,27H2.813a2.708,2.708,0,0,1-1.986-.826A2.71,2.71,0,0,1,0,24.188V2.813A2.709,2.709,0,0,1,.826.826,2.709,2.709,0,0,1,2.813,0H33.188a2.708,2.708,0,0,1,1.986.826A2.708,2.708,0,0,1,36,2.812Z" fill="#f9f9f9"/>
</svg>
